# xmcd
#
# Track frame offsets:
# 150
# 15782
# 27479
# 53393
#
# Disc length: 1326 seconds
#
# Revision: 1
# Processed by: cddbd v1.5.2PL0 Copyright (c) Steve Scherf et al.
# Submitted via: CedeCatalogueitor 2.6.0.6 http://personales.ya.com/cdcatalogueitor
#
DISCID=1d052c04
DTITLE=Josh Ritter - Lillian, Egypt [CD Single)
DYEAR=1900
DGENRE=
TTITLE0=Lillian, Egypt
TTITLE1=Peter Killed The Dragon
TTITLE2=Harbortown
TTITLE3=Lillian, Egypt (Video)
EXTD=
EXTT0=
EXTT1=
EXTT2=
EXTT3=
PLAYORDER=
